<svg xmlns="http://www.w3.org/2000/svg" xmlns:xlink="http://www.w3.org/1999/xlink" aria-hidden="true" role="img" class="iconify iconify--logos" width="31.88" height="32" preserveAspectRatio="xMidYMid meet" viewBox="0 0 256 257"><defs><linearGradient id="IconifyId1813088fe1fbc01fb466" x1="-.828%" x2="57.636%" y1="7.652%" y2="78.411%"><stop offset="0%" stop-color="#FF00FF"></stop><stop offset="100%" stop-color="#FF8C00"></stop></linearGradient></defs><path fill="url(#IconifyId1813088fe1fbc01fb466)" d="M255.153 37.938L134.897 252.976c-2.483 4.44-8.862 4.466-11.382.048L.875 37.958c-2.746-4.814 1.371-10.646 6.827-10.67h42.211L83.5 178.537l52.557-151.209h42.15c5.487 0 9.601 5.657 6.546 10.67Z"></path><path fill="#FFF" d="M185.432.063L96.44 17.501a6.954 6.954 0 0 0-5.869 5.211L3.697 216.98a6.954 6.954 0 0 0 8.4 8.693l60.373-12.362a6.955 6.955 0 0 0 5.063-5.905l50.537-256.465a6.954 6.954 0 0 0-8.4-8.653Z"></path></svg>
