<?xml version="1.0" encoding="UTF-8"?>
<svg id="Layer_1" data-name="Layer 1" xmlns="http://www.w3.org/2000/svg" viewBox="0 0 103.42 114.16">
  
  <g>
    <path fill="currentColor" d="M103.4,15.72v81.76c0,1.45-.97,2.72-2.36,3.1l-46.96,12.98c-.54.15-1.12.15-1.66.01L3.59,100.97c-1.4-.36-3.03-1.72-3.05-3.17L.33,15.99c-.02-1.5,1.44-3.19,2.9-3.55L51.42.8c.5-.12,1.03-.12,1.53,0l48,11.8c1.44.35,2.45,1.64,2.45,3.12Z"/>
    <path fill="currentColor" d="M100.59,18.08v77.03c0,1.45-.97,2.72-2.36,3.1l-44.22,12.22c-.54.15-1.12.15-1.66.01l-45.99-11.87c-1.4-.36-2.39-1.62-2.41-3.07L2.81,18.32c-.02-1.5.99-2.81,2.45-3.17L51.4,3.85c.5-.12,1.03-.12,1.53,0l45.2,11.11c1.44.35,2.45,1.64,2.45,3.12Z"/>
    <g>
      <path fill="currentColor" d="M88.16,52.18c-1.87-17.78-16.31-31.39-34.09-32.67l-2.3-2.41-2.64,2.44c-18.64,1.41-33.27,16.22-34.13,34.85l-1.75,2.29,1.78,2.37c1.41,17.86,15.53,32.21,33.45,33.69l3.31,2.62,2.75-2.57c18.32-1.43,32.38-15.88,33.85-34l1.71-2.33c-1.52-1.54-1.74-2.45-1.94-4.27ZM43.86,26.59c-2.67,4.64-5.07,8.86-7.43,13.71-5.07,1.92-9.37,4.52-14.21,7.69,2.66-10.49,11.05-18.64,21.64-21.4ZM22.55,65.47c4.81,2.66,8.91,4.89,13.55,7.03,1.22,4.41,3.28,8.45,5.9,12.75-9.44-3.14-16.71-10.49-19.45-19.77ZM51.69,84.94l-8.14-10.28,3.52,1.23-.76-1.75c-5.88-1.46-10.88-6.59-12.6-12.41-.16-.54-1.7-1.04-1.98-.98l1.45,3.43-10.26-7.97,9.94-7.85-.74,3.18c.47-.09,1.56-.78,1.76-1.38,1.9-5.6,5.92-9.65,11.49-11.64.81-.29,1.62-1.35,1.76-1.9-1.54.33-2.03.46-3.15.59l7.74-9.77,7.98,10.2-3.22-1.03c-.23.26.47,1.55,1.04,1.73,5.67,1.86,9.86,5.99,11.86,11.61.31.87,1.12,1.5,2,1.68l-1.03-3.31,10.11,7.89-10.19,7.98,1.06-3.43c-.77.17-1.68.86-1.98,1.69-1.97,5.55-6.02,9.61-11.6,11.49-.83.28-1.56,1.46-1.33,1.89l3.24-1.03-7.98,10.13ZM61.63,85.12c2.27-4.11,4.23-8.33,5.66-12.46l13.38-7.07c-2.44,8.82-9.7,16.37-19.05,19.53ZM67.06,40.46c-2.4-4.72-4.9-9.23-7.7-13.97,10.39,2.9,18.82,10.47,21.74,21.37-4.71-2.76-8.93-5.67-14.04-7.4Z"/>
      <circle fill="currentColor" cx="51.68" cy="56.22" r="7.69"/>
    </g>
  </g>
  <path fill="currentColor" d="M3.91,95.61l49.14,12.99,47.55-13.62c0,2.16-.4,3.36-4.19,4.33l-43.28,11.69-46.76-11.94c-1.17-.3-2.44-1.45-2.45-2.82v-.63Z"/>
</svg>