<?xml version="1.0" encoding="UTF-8"?>
<svg id="Layer_1" data-name="Layer 1" xmlns="http://www.w3.org/2000/svg" xmlns:xlink="http://www.w3.org/1999/xlink" viewBox="0 0 103.42 114.16">
  <defs>
    <style>
      .cls-1 {
        fill: url(#linear-gradient-2);
      }

      .cls-2 {
        fill: #fff;
      }

      .cls-3 {
        fill: url(#linear-gradient);
        stroke: #362063;
        stroke-miterlimit: 10;
        stroke-width: .5px;
      }
    </style>
    <linearGradient id="linear-gradient" x1="52.01" y1="113.98" x2="52.01" y2="1.01" gradientUnits="userSpaceOnUse">
      <stop offset="0" stop-color="#13794d"/>
      <stop offset=".23" stop-color="#157a4e"/>
      <stop offset=".37" stop-color="#1e7f55"/>
      <stop offset=".48" stop-color="#2c8760"/>
      <stop offset=".59" stop-color="#40936f"/>
      <stop offset=".68" stop-color="#5ba283"/>
      <stop offset=".77" stop-color="#7cb49c"/>
      <stop offset=".85" stop-color="#a2cab9"/>
      <stop offset=".93" stop-color="#cee3da"/>
      <stop offset="1" stop-color="#fff"/>
    </linearGradient>
    <linearGradient id="linear-gradient-2" x1="51.72" y1="4.06" x2="51.72" y2="110.85" gradientUnits="userSpaceOnUse">
      <stop offset="0" stop-color="#13794d"/>
      <stop offset=".38" stop-color="#147a4e"/>
      <stop offset=".51" stop-color="#1b7d53"/>
      <stop offset=".61" stop-color="#27845c"/>
      <stop offset=".69" stop-color="#388e69"/>
      <stop offset=".76" stop-color="#4e9a79"/>
      <stop offset=".82" stop-color="#69aa8e"/>
      <stop offset=".87" stop-color="#8abca6"/>
      <stop offset=".92" stop-color="#afd2c3"/>
      <stop offset=".97" stop-color="#d8e9e2"/>
      <stop offset="1" stop-color="#fff"/>
    </linearGradient>
  </defs>
  <g>
    <path class="cls-3" d="M103.42,16.03v81.76c0,1.45-.97,2.72-2.36,3.1l-46.96,12.98c-.54.15-1.12.15-1.66.01L3.61,101.27c-1.4-.36-2.87-1.66-2.9-3.11l-.1-81.8c-.02-1.5,1.25-3.12,2.71-3.47L51.44,1.11c.5-.12,1.03-.12,1.53,0l48,11.8c1.44.35,2.45,1.64,2.45,3.12Z"/>
    <path class="cls-1" d="M100.6,18.39v77.03c0,1.45-.97,2.72-2.36,3.1l-44.22,12.22c-.54.15-1.12.15-1.66.01l-45.99-11.87c-1.4-.36-2.39-1.62-2.41-3.07L2.83,18.63c-.02-1.5.99-2.81,2.45-3.17L51.42,4.15c.5-.12,1.03-.12,1.53,0l45.2,11.11c1.44.35,2.45,1.64,2.45,3.12Z"/>
    <path class="cls-2" d="M3.92,95.43l49.14,12.99,47.55-13.62c0,2.16-.4,3.36-4.19,4.33l-43.28,11.69-46.76-11.94c-1.17-.3-2.44-1.45-2.45-2.82v-.63Z"/>
  </g>
  <g>
    <path class="cls-2" d="M52.07,38.18l32.96,11.14c-4.18-14.67-17.79-24.54-32.59-24.7-15-.17-28.96,9.65-33.31,24.59l32.94-11.04Z"/>
    <path class="cls-2" d="M72.95,86.34l-21.01-7.11-20.81,7.12c1.92,1.92,4.25,3.37,6.77,4.02,20.59-6.34,8.41-5.58,28.46-.07,2.48-.25,4.42-2,6.6-3.96Z"/>
    <path class="cls-2" d="M52.08,47.7l-34.42,11.65c0,7.07,2.24,14.56,6.48,19.63,40.13-11.78,15.82-11.56,55.9,0,4.15-5.08,6.36-12.48,6.37-19.62l-34.33-11.66ZM52.06,66.3c-3.97,0-7.18-3.22-7.18-7.19s3.22-7.19,7.18-7.19,7.18,3.22,7.18,7.19-3.22,7.19-7.18,7.19Z"/>
  </g>
</svg>