<?xml version="1.0" encoding="UTF-8"?>
<svg id="Layer_1" data-name="Layer 1" xmlns="http://www.w3.org/2000/svg" viewBox="0 0 103.42 114.16">
  
  <g>
    <path fill="currentColor" d="M103.42,16.03v81.76c0,1.45-.97,2.72-2.36,3.1l-46.96,12.98c-.54.15-1.12.15-1.66.01L3.61,101.27c-1.4-.36-2.87-1.66-2.9-3.11l-.1-81.8c-.02-1.5,1.25-3.12,2.71-3.47L51.44,1.11c.5-.12,1.03-.12,1.53,0l48,11.8c1.44.35,2.45,1.64,2.45,3.12Z"/>
    <path fill="currentColor" d="M100.6,18.39v77.03c0,1.45-.97,2.72-2.36,3.1l-44.22,12.22c-.54.15-1.12.15-1.66.01l-45.99-11.87c-1.4-.36-2.39-1.62-2.41-3.07L2.83,18.63c-.02-1.5.99-2.81,2.45-3.17L51.42,4.15c.5-.12,1.03-.12,1.53,0l45.2,11.11c1.44.35,2.45,1.64,2.45,3.12Z"/>
    <path fill="currentColor" d="M3.92,95.43l49.14,12.99,47.55-13.62c0,2.16-.4,3.36-4.19,4.33l-43.28,11.69-46.76-11.94c-1.17-.3-2.44-1.45-2.45-2.82v-.63Z"/>
  </g>
  <g>
    <path fill="currentColor" d="M52.07,38.18l32.96,11.14c-4.18-14.67-17.79-24.54-32.59-24.7-15-.17-28.96,9.65-33.31,24.59l32.94-11.04Z"/>
    <path fill="currentColor" d="M72.95,86.34l-21.01-7.11-20.81,7.12c1.92,1.92,4.25,3.37,6.77,4.02,20.59-6.34,8.41-5.58,28.46-.07,2.48-.25,4.42-2,6.6-3.96Z"/>
    <path fill="currentColor" d="M52.08,47.7l-34.42,11.65c0,7.07,2.24,14.56,6.48,19.63,40.13-11.78,15.82-11.56,55.9,0,4.15-5.08,6.36-12.48,6.37-19.62l-34.33-11.66ZM52.06,66.3c-3.97,0-7.18-3.22-7.18-7.19s3.22-7.19,7.18-7.19,7.18,3.22,7.18,7.19-3.22,7.19-7.18,7.19Z"/>
  </g>
</svg>