<?xml version="1.0" encoding="UTF-8"?>
<svg id="Layer_1" data-name="Layer 1" xmlns="http://www.w3.org/2000/svg" viewBox="0 0 103.42 114.16">
  
  <g>
    <path fill="currentColor" d="M103.42,16.03v81.76c0,1.45-.97,2.72-2.36,3.1l-46.96,12.98c-.54.15-1.12.15-1.66.01L2.61,100.27c-1.4-.36-2.39-1.62-2.41-3.07L0,16.28c-.02-1.5.99-2.81,2.45-3.17L51.44,1.11c.5-.12,1.03-.12,1.53,0l48,11.8c1.44.35,2.45,1.64,2.45,3.12Z"/>
    <path fill="currentColor" d="M100.6,18.39v77.03c0,1.45-.97,2.72-2.36,3.1l-44.22,12.22c-.54.15-1.12.15-1.66.01l-45.99-11.87c-1.4-.36-2.39-1.62-2.41-3.07L2.83,18.63c-.02-1.5.99-2.81,2.45-3.17L51.42,4.15c.5-.12,1.03-.12,1.53,0l45.2,11.11c1.44.35,2.45,1.64,2.45,3.12Z"/>
    <path fill="currentColor" d="M3.92,95.43l49.14,12.99,47.55-13.62c0,2.16-.4,3.36-4.19,4.33l-43.28,11.69-46.76-11.94c-1.17-.3-2.44-1.45-2.45-2.82v-.63Z"/>
  </g>
  <g>
    <path fill="currentColor" d="M65.42,87.65c-12.52,1.63-23.21-7.05-23.31-18.96-.11-12.35,10.42-21.37,23.26-19.96-10.24-7.19-23.97-4.8-31.56,3.91-7.83,8.99-7.85,22.28.07,31.22s21.4,11.53,31.54,3.8Z"/>
    <path fill="currentColor" d="M71.15,29.44c-11.03-7.99-24.24-8.09-35.8-2.06-17.78,9.27-23.86,33.93-11.37,50.11-5.15-15.41,2.76-25.7,12.49-35.21,9.48-9.26,19.42-17.42,34.68-12.84Z"/>
    <ellipse fill="currentColor" cx="61.74" cy="68.29" rx="14.21" ry="14.1"/>
    <path fill="currentColor" d="M48.07,38.96c9.36-.63,17.92,1.88,24.45,8.28s9.41,14.97,8.87,24.94c7.85-9.11,6.35-23.18-1.71-31.15-8.11-8.03-21.84-10.35-31.61-2.06Z"/>
  </g>
</svg>