<?xml version="1.0" encoding="UTF-8"?>
<svg id="Layer_1" data-name="Layer 1" xmlns="http://www.w3.org/2000/svg" viewBox="0 0 103.42 114.16">
  
  <g>
    <path fill="currentColor" d="M103.42,15.72v81.76c0,1.45-.97,2.72-2.36,3.1l-46.96,12.98c-.54.15-1.12.15-1.66.01L2.61,100.97c-1.4-.36-2.39-1.62-2.41-3.07L0,15.97c-.02-1.5.99-2.81,2.45-3.17L51.44.8c.5-.12,1.03-.12,1.53,0l48,11.8c1.44.35,2.45,1.64,2.45,3.12Z"/>
    <path fill="currentColor" d="M100.6,18.08v77.03c0,1.45-.97,2.72-2.36,3.1l-44.22,12.22c-.54.15-1.12.15-1.66.01l-45.99-11.87c-1.4-.36-2.39-1.62-2.41-3.07L2.83,18.32c-.02-1.5.99-2.81,2.45-3.17L51.42,3.85c.5-.12,1.03-.12,1.53,0l45.2,11.11c1.44.35,2.45,1.64,2.45,3.12Z"/>
    <path fill="currentColor" d="M3.92,95.12l49.14,12.99,47.55-13.62c0,2.16-.4,3.36-4.19,4.33l-43.28,11.69-46.76-11.94c-1.17-.3-2.44-1.45-2.45-2.82v-.63Z"/>
  </g>
  <path fill="currentColor" d="M52.26,22.42c-19.43,0-35.19,15.7-35.19,35.07s15.76,35.07,35.19,35.07,35.19-15.7,35.19-35.07-15.76-35.07-35.19-35.07ZM51.83,86.89c-13.32-.2-24.99-9.37-28.2-22.41-3.17-12.9,2.84-26.98,14.98-32.89-5.07,6.08-7.18,12.81-4.59,20.36,1.96,5.71,7.25,11.33,14.37,12.36-4.65-3.11-5.77-9.02-2.39-12.82,3.52-3.96,9.69-3.76,12.71.31,3.1,4.18,1.82,9.73-2.8,12.52,7.32-.98,12.78-6.82,14.65-12.77,2.42-7.68.18-14.49-5.01-20.12,12.71,6.13,18.68,20.4,15.1,33.82-3.37,12.66-15.31,21.85-28.83,21.65Z"/>
</svg>