<?xml version="1.0" encoding="UTF-8"?>
<svg id="Layer_1" data-name="Layer 1" xmlns="http://www.w3.org/2000/svg" viewBox="0 0 103.42 114.16">
  
  <g>
    <path fill="currentColor" d="M103.42,15.61v81.76c0,1.45-.97,2.72-2.36,3.1l-46.96,12.98c-.54.15-1.12.15-1.66.01L2.61,100.86c-1.4-.36-2.39-1.62-2.41-3.07L0,15.86c-.02-1.5.99-2.81,2.45-3.17L51.44.69c.5-.12,1.03-.12,1.53,0l48,11.8c1.44.35,2.45,1.64,2.45,3.12Z"/>
    <path fill="currentColor" d="M100.6,17.97v77.03c0,1.45-.97,2.72-2.36,3.1l-44.22,12.22c-.54.15-1.12.15-1.66.01l-45.99-11.87c-1.4-.36-2.39-1.62-2.41-3.07L2.83,18.21c-.02-1.5.99-2.81,2.45-3.17L51.42,3.74c.5-.12,1.03-.12,1.53,0l45.2,11.11c1.44.35,2.45,1.64,2.45,3.12Z"/>
    <path fill="currentColor" d="M3.92,95.02l49.14,12.99,47.55-13.62c0,2.16-.4,3.36-4.19,4.33l-43.28,11.69-46.76-11.94c-1.17-.3-2.44-1.45-2.45-2.82v-.63Z"/>
  </g>
  <circle fill="currentColor" cx="52.26" cy="56.88" r="26.9"/>
  <circle fill="currentColor" cx="52.26" cy="56.88" r="16.85"/>
</svg>