<?xml version="1.0" encoding="UTF-8"?>
<svg id="Layer_1" data-name="Layer 1" xmlns="http://www.w3.org/2000/svg" xmlns:xlink="http://www.w3.org/1999/xlink" viewBox="0 0 103.46 114.99">
  <defs>
    <style>
      .cls-1 {
        fill: url(#linear-gradient-2);
      }

      .cls-2 {
        fill: #fff;
      }

      .cls-3 {
        fill: url(#linear-gradient);
        stroke: #362063;
        stroke-miterlimit: 10;
        stroke-width: .5px;
      }
    </style>
    <linearGradient id="linear-gradient" x1="51.75" y1="114.16" x2="51.75" y2="1.19" gradientUnits="userSpaceOnUse">
      <stop offset="0" stop-color="#538cc5"/>
      <stop offset=".25" stop-color="#558dc5"/>
      <stop offset=".41" stop-color="#5e93c8"/>
      <stop offset=".54" stop-color="#6c9dcd"/>
      <stop offset=".65" stop-color="#80aad4"/>
      <stop offset=".75" stop-color="#9bbcdd"/>
      <stop offset=".85" stop-color="#bcd2e8"/>
      <stop offset=".94" stop-color="#e1ebf5"/>
      <stop offset="1" stop-color="#fff"/>
    </linearGradient>
    <linearGradient id="linear-gradient-2" x1="51.76" y1="4.24" x2="51.76" y2="111.04" gradientUnits="userSpaceOnUse">
      <stop offset="0" stop-color="#538cc5"/>
      <stop offset=".4" stop-color="#548dc5"/>
      <stop offset=".55" stop-color="#5b91c7"/>
      <stop offset=".65" stop-color="#6799cb"/>
      <stop offset=".74" stop-color="#78a4d1"/>
      <stop offset=".81" stop-color="#8eb3d9"/>
      <stop offset=".87" stop-color="#a9c5e2"/>
      <stop offset=".93" stop-color="#c9dbed"/>
      <stop offset=".98" stop-color="#eef3f9"/>
      <stop offset="1" stop-color="#fff"/>
    </linearGradient>
  </defs>
  <path class="cls-3" d="M103.46,16.21v81.76c0,1.45-.97,2.72-2.36,3.1l-46.96,12.98c-.54.15-1.12.15-1.66.01L3.65,101.46c-1.4-.36-3.13-1.81-3.15-3.26L.04,16.46c-.02-1.5.99-2.81,2.45-3.17L51.48,1.29c.5-.12,1.03-.12,1.53,0l48,11.8c1.44.35,2.45,1.64,2.45,3.12Z"/>
  <path class="cls-1" d="M100.65,18.57v77.03c0,1.45-.97,2.72-2.36,3.1l-44.22,12.22c-.54.15-1.12.15-1.66.01l-45.99-11.87c-1.4-.36-2.39-1.62-2.41-3.07L2.87,18.81c-.02-1.5.99-2.81,2.45-3.17L51.46,4.34c.5-.12,1.03-.12,1.53,0l45.2,11.11c1.44.35,2.45,1.64,2.45,3.12Z"/>
  <g>
    <circle class="cls-2" cx="39.25" cy="69.82" r="4.08"/>
    <circle class="cls-2" cx="52.29" cy="56.75" r="7.78" transform="translate(-11.64 13.53) rotate(-13.28)"/>
    <path class="cls-2" d="M16.06,56.8c0,19.98,16.2,36.17,36.17,36.17s36.17-16.2,36.17-36.17-16.2-36.17-36.17-36.17S16.06,36.82,16.06,56.8ZM79.6,60.17c0,16.99-13.78,30.77-30.77,30.77s-30.77-13.78-30.77-30.77,13.78-30.77,30.77-30.77,30.77,13.78,30.77,30.77Z"/>
    <path class="cls-2" d="M24.93,53.89c7.03-11.45,20.93-15.24,32.09-7.64,6.68,4.55,10.52,12.48,9.56,20.6-.93,7.87-5.83,14.2-13.6,18,12.55-1.75,21.53-12.97,21.53-25.02,0-12.69-9.38-23.2-21.61-25.05-12.31-1.85-25.53,5.95-27.96,19.11Z"/>
  </g>
  <path class="cls-2" d="M3.96,95.61l49.14,12.99,47.55-13.62c0,2.16-.4,3.36-4.19,4.33l-43.28,11.69-46.76-11.94c-1.17-.3-2.44-1.45-2.45-2.82v-.63Z"/>
</svg>