<?xml version="1.0" encoding="UTF-8"?>
<svg id="Layer_1" data-name="Layer 1" xmlns="http://www.w3.org/2000/svg" viewBox="0 0 103.46 114.99">
  
  <path fill="currentColor" d="M103.46,16.21v81.76c0,1.45-.97,2.72-2.36,3.1l-46.96,12.98c-.54.15-1.12.15-1.66.01L3.65,101.46c-1.4-.36-3.13-1.81-3.15-3.26L.04,16.46c-.02-1.5.99-2.81,2.45-3.17L51.48,1.29c.5-.12,1.03-.12,1.53,0l48,11.8c1.44.35,2.45,1.64,2.45,3.12Z"/>
  <path fill="currentColor" d="M100.65,18.57v77.03c0,1.45-.97,2.72-2.36,3.1l-44.22,12.22c-.54.15-1.12.15-1.66.01l-45.99-11.87c-1.4-.36-2.39-1.62-2.41-3.07L2.87,18.81c-.02-1.5.99-2.81,2.45-3.17L51.46,4.34c.5-.12,1.03-.12,1.53,0l45.2,11.11c1.44.35,2.45,1.64,2.45,3.12Z"/>
  <g>
    <circle fill="currentColor" cx="39.25" cy="69.82" r="4.08"/>
    <circle fill="currentColor" cx="52.29" cy="56.75" r="7.78" transform="translate(-11.64 13.53) rotate(-13.28)"/>
    <path fill="currentColor" d="M16.06,56.8c0,19.98,16.2,36.17,36.17,36.17s36.17-16.2,36.17-36.17-16.2-36.17-36.17-36.17S16.06,36.82,16.06,56.8ZM79.6,60.17c0,16.99-13.78,30.77-30.77,30.77s-30.77-13.78-30.77-30.77,13.78-30.77,30.77-30.77,30.77,13.78,30.77,30.77Z"/>
    <path fill="currentColor" d="M24.93,53.89c7.03-11.45,20.93-15.24,32.09-7.64,6.68,4.55,10.52,12.48,9.56,20.6-.93,7.87-5.83,14.2-13.6,18,12.55-1.75,21.53-12.97,21.53-25.02,0-12.69-9.38-23.2-21.61-25.05-12.31-1.85-25.53,5.95-27.96,19.11Z"/>
  </g>
  <path fill="currentColor" d="M3.96,95.61l49.14,12.99,47.55-13.62c0,2.16-.4,3.36-4.19,4.33l-43.28,11.69-46.76-11.94c-1.17-.3-2.44-1.45-2.45-2.82v-.63Z"/>
</svg>