<?xml version="1.0" encoding="UTF-8"?>
<svg id="Layer_1" data-name="Layer 1" xmlns="http://www.w3.org/2000/svg" xmlns:xlink="http://www.w3.org/1999/xlink" viewBox="0 0 103.42 114.16">
  <defs>
    <style>
      .cls-1 {
        fill: url(#linear-gradient-2);
      }

      .cls-2 {
        fill: #fff;
      }

      .cls-3 {
        fill: url(#linear-gradient);
        stroke: #362063;
        stroke-miterlimit: 10;
        stroke-width: .5px;
      }
    </style>
    <linearGradient id="linear-gradient" x1="51.71" y1="113.34" x2="51.71" y2=".37" gradientUnits="userSpaceOnUse">
      <stop offset="0" stop-color="#161225"/>
      <stop offset=".23" stop-color="#181427"/>
      <stop offset=".37" stop-color="#201d2f"/>
      <stop offset=".49" stop-color="#2f2b3c"/>
      <stop offset=".59" stop-color="#433f4f"/>
      <stop offset=".68" stop-color="#5d5a67"/>
      <stop offset=".77" stop-color="#7d7b85"/>
      <stop offset=".85" stop-color="#a3a1a9"/>
      <stop offset=".93" stop-color="#cecdd1"/>
      <stop offset="1" stop-color="#fff"/>
    </linearGradient>
    <linearGradient id="linear-gradient-2" x1="51.72" y1="3.42" x2="51.72" y2="110.22" gradientUnits="userSpaceOnUse">
      <stop offset="0" stop-color="#161225"/>
      <stop offset=".38" stop-color="#171326"/>
      <stop offset=".51" stop-color="#1e1a2c"/>
      <stop offset=".61" stop-color="#2a2637"/>
      <stop offset=".69" stop-color="#3a3747"/>
      <stop offset=".76" stop-color="#504d5b"/>
      <stop offset=".82" stop-color="#6b6874"/>
      <stop offset=".87" stop-color="#8b8992"/>
      <stop offset=".92" stop-color="#b0aeb5"/>
      <stop offset=".96" stop-color="#d8d7db"/>
      <stop offset="1" stop-color="#fff"/>
    </linearGradient>
  </defs>
  <g>
    <path class="cls-3" d="M103.42,15.39v81.76c0,1.45-.97,2.72-2.36,3.1l-46.96,12.98c-.54.15-1.12.15-1.66.01L2.61,100.64c-1.4-.36-2.39-1.62-2.41-3.07L0,15.64c-.02-1.5.99-2.81,2.45-3.17L51.44.47c.5-.12,1.03-.12,1.53,0l48,11.8c1.44.35,2.45,1.64,2.45,3.12Z"/>
    <path class="cls-1" d="M100.6,17.75v77.03c0,1.45-.97,2.72-2.36,3.1l-44.22,12.22c-.54.15-1.12.15-1.66.01l-45.99-11.87c-1.4-.36-2.39-1.62-2.41-3.07L2.83,17.99c-.02-1.5.99-2.81,2.45-3.17L51.42,3.52c.5-.12,1.03-.12,1.53,0l45.2,11.11c1.44.35,2.45,1.64,2.45,3.12Z"/>
    <path class="cls-2" d="M3.92,94.79l49.14,12.99,47.55-13.62c0,2.16-.4,3.36-4.19,4.33l-43.28,11.69-46.76-11.94c-1.17-.3-2.44-1.45-2.45-2.82v-.63Z"/>
  </g>
  <g>
    <path class="cls-2" d="M30.99,55.11c-.5-1.4-8.82-10.36-10.56-10.36-.85,0-2.77,1.12-2.48,2,.8,2.38,3.49,4.68,3.9,7.32l4.53,28.73,27.74,4.46c3.02.49,5.38,2.85,7.98,4.53.5-.13,2.54-3.19,1.67-3.97-15.18-13.59-.07-7.7-29.62-13.23-1.83-6.36-1-13.41-3.17-19.49Z"/>
    <path class="cls-2" d="M42.95,21.81c-.96,0-2.02,1.05-2.22,1.89-.17.71.36,2.31,1.05,2.75,3.44,2.21,5.14,6.72,8.86,8.31,6.05,2.58,13.35,1.44,19.67,3.64,2.1,6.24.88,13.28,3.34,19.42,1.54,3.83,6.4,6.2,8.71,9.75.32.49,1.99.75,2.55.57.64-.21,1.51-1.16,1.73-1.91-.93-2.55-3.46-4.37-3.87-6.95l-4.54-28.98-28.38-4.62c-2.44-.4-4.32-2.66-6.9-3.85Z"/>
    <polygon class="cls-2" points="62.36 46.21 49.44 43.57 39.61 53.68 42.24 66.76 54.96 69.44 64.88 59.25 62.36 46.21"/>
    <polygon class="cls-2" points="67.83 82.84 78.26 72.28 69.34 63.25 58.91 73.81 67.83 82.84"/>
    <polygon class="cls-2" points="35.13 49.72 45.57 39.15 36.64 30.11 26.2 40.68 35.13 49.72"/>
  </g>
</svg>